HIERARCHY
ROOT Root
{
	OFFSET 0.00000 0.00000 0.00000
	CHANNELS 6 Xposition Yposition Zposition Zrotation Xrotation Yrotation
	JOINT Hips
	{
		OFFSET 0 0 0	
		CHANNELS 3 Zrotation Xrotation Yrotation
		JOINT Spine
		{
			OFFSET 0 4 0	
			CHANNELS 3 Zrotation Xrotation Yrotation
			JOINT Spine1
			{
				OFFSET 0 19.4 0	
				CHANNELS 3 Zrotation Xrotation Yrotation
				JOINT Spine2
				{
					OFFSET 0 16.6 0	
					CHANNELS 3 Zrotation Xrotation Yrotation
					JOINT LeftCollar
					{
						OFFSET 0 10 0	
						CHANNELS 3 Zrotation Xrotation Yrotation
						JOINT LeftArm
						{
							OFFSET 15.6 -2 3	
							CHANNELS 3 Zrotation Xrotation Yrotation
							JOINT LeftForeArm
							{
								OFFSET 3.5 -27 -1	
								CHANNELS 3 Zrotation Xrotation Yrotation
								JOINT LeftHand
								{
									OFFSET 1 -27 1	
									CHANNELS 3 Zrotation Xrotation Yrotation
									End Site
									{
										OFFSET 0 -15 0
									}
								}
							}
						}
					}
					JOINT RightCollar
					{
						OFFSET 0 10 0	
						CHANNELS 3 Zrotation Xrotation Yrotation
						JOINT RightArm
						{
							OFFSET -15.6 -2 3	
							CHANNELS 3 Zrotation Xrotation Yrotation
							JOINT RightForeArm
							{
								OFFSET -3.5 -27 -1	
								CHANNELS 3 Zrotation Xrotation Yrotation
								JOINT RightHand
								{
									OFFSET -1 -27 1	
									CHANNELS 3 Zrotation Xrotation Yrotation
									End Site
									{
										OFFSET 0 -15 0
									}
								}
							}
						}
					}
					JOINT Neck
					{
						OFFSET 0 10 0	
						CHANNELS 3 Zrotation Xrotation Yrotation
						JOINT Head
						{
							OFFSET 0 12.7 3	
							CHANNELS 3 Zrotation Xrotation Yrotation
							End Site
							{
								OFFSET 0 12.7 3
							}
						}
					}
				}
			}
		}
	}
	JOINT LeftHip
	{
		OFFSET 0 0 0	
		CHANNELS 3 Zrotation Xrotation Yrotation
		JOINT LeftUpLeg
		{
			OFFSET 8.8 -6 0	
			CHANNELS 3 Zrotation Xrotation Yrotation
			JOINT LeftLeg
			{
				OFFSET 0 -39 2	
				CHANNELS 3 Zrotation Xrotation Yrotation
				JOINT LeftFoot
				{
					OFFSET 0 -43 -2	
					CHANNELS 3 Zrotation Xrotation Yrotation
					JOINT LeftFootFront
					{
						OFFSET 0 -7 8.5	
						CHANNELS 3 Zrotation Xrotation Yrotation
						End Site
						{
							OFFSET 0 -0.5 9
						}
					}
				}
				JOINT LeftHeel
				{
					OFFSET 0 -43 -2	
					CHANNELS 3 Zrotation Xrotation Yrotation
					End Site
					{
						OFFSET 0 -7.5 -5
					}
				}
			}
		}
	}
	JOINT RightHip
	{
		OFFSET 0 0 0	
		CHANNELS 3 Zrotation Xrotation Yrotation
		JOINT RightUpLeg
		{
			OFFSET -8.8 -6 0	
			CHANNELS 3 Zrotation Xrotation Yrotation
			JOINT RightLeg
			{
				OFFSET 0 -39 2	
				CHANNELS 3 Zrotation Xrotation Yrotation
				JOINT RightFoot
				{
					OFFSET 0 -43 -2	
					CHANNELS 3 Zrotation Xrotation Yrotation
					JOINT RightFootFront
					{
						OFFSET 0 -7 8.5	
						CHANNELS 3 Zrotation Xrotation Yrotation
						End Site
						{
							OFFSET 0 -0.5 9
						}
					}
				}
				JOINT RightHeel
				{
					OFFSET 0 -43 -2	
					CHANNELS 3 Zrotation Xrotation Yrotation
					End Site
					{
						OFFSET 0 -7.5 -5
					}
				}
			}
		}
	}
}
MOTION
Frames: 21
Frame Time: 0.1
10.603 91.623 -1.79 -0 0 -0 -0.33681 18.811 -19.84 0.56718 -0.68942 -1.8059 0.56718 -0.68942 -1.8059 0.4779 -0.57792 -1.5174 -0 0 -0 61.525 22.252 -24.547 -26.651 -26.965 -53.761 11.783 -40.647 26.83 -0 0 -0 -26.916 -30.795 44.666 57.762 -39.948 58.791 7.1536 -10.85 -27.267 10.032 -5.9366 -3.322 10.032 -5.9366 -3.322 -0.33681 18.811 -19.84 22.775 -30.631 18.042 -10.545 26.266 14.728 -2.5004 -9.9449 -4.38 0.0042146 0.01276 -0.011421 -0 0 -0 -0.33681 18.811 -19.84 7.6636 -36.58 14.188 0.78682 24.613 -7.4657 12.773 -4.5148 -4.1502 3.0957 -1.4053 -0.34682 -0 0 -0 
9.5601 91.814 -1.1544 -0 0 -0 0.4191 19.287 -24.776 1.7308 -0.406 -1.7142 1.7308 -0.40601 -1.7142 1.4547 -0.33757 -1.4407 -0 0 -0 61.359 32.442 -28.299 -22.897 -22.564 -51.414 10.149 -35.797 18.353 -0 0 -0 -26.591 -40.487 48.465 67.32 -41.509 63.877 9.2261 -9.2856 -35.605 4.6066 -4.932 4.0528 4.6066 -4.932 4.0528 0.4191 19.287 -24.776 17.256 -30.984 3.6519 -5.9144 27.511 2.9756 -2.4726 -13.85 22.735 0.0025958 0.0061948 -0.0055056 -0 0 -0 0.4191 19.287 -24.776 12.203 -36.828 23.903 1.5333 25.008 -6.671 10.589 -4.373 -6.2677 5.4598 -1.8429 4.7457 -0 0 -0 
8.4904 91.08 -0.0036586 -0 0 -0 2.2269 18.624 -25.418 1.6529 1.8044 -2.3268 1.6529 1.8044 -2.3268 1.3835 1.5203 -1.9509 -0 0 -0 53.399 30.486 -20.521 -21.22 -20.143 -47.525 3.2952 -26.398 9.1504 -0 0 -0 -21.171 -45.742 47.201 63.847 -40.411 59.584 21.267 -12.127 -36.891 1.9257 -8.7352 8.5153 1.9257 -8.7352 8.5153 2.2269 18.624 -25.418 16.133 -31.581 -2.4961 -7.5976 31.756 11.466 -6.0161 -17.865 20.141 -0.010423 -0.0012348 -0.010162 -0 0 -0 2.2269 18.624 -25.418 12.176 -39.048 18.754 -1.8668 32.319 -0.8871 10.138 -8.7374 -0.58474 -4.0107 2.0671 -1.0977 -0 0 -0 
6.7776 90.593 0.81203 -0 0 -0 4.5359 18.461 -21.119 0.68488 2.7092 -3.983 0.68488 2.7092 -3.983 0.56258 2.2791 -3.3431 -0 0 -0 49.863 30.756 -19.562 -20.18 -21.212 -44.769 1.2348 -13.243 5.0287 -0 0 -0 -7.0673 -45.952 50.422 57.978 -32.974 51.262 27.927 -17.865 -35.548 1.1537 -12.32 11.199 1.1537 -12.32 11.199 4.5359 18.461 -21.119 13.473 -33.985 1.0056 -3.4124 34.562 6.064 -8.8014 -18.768 15.291 0.0053587 0.0060471 -0.010048 -0 0 -0 4.5359 18.461 -21.119 8.6362 -42.875 17.753 -0.071374 38.609 -0.84265 4.5016 -10.283 -6.652 -1.1751 -2.0556 0.06899 -0 0 -0 
4.0705 91.418 0.86607 -0 0 -0 10.257 18.111 -16.536 -2.8635 1.6891 -4.5782 -2.8635 1.6891 -4.5782 -2.4144 1.4036 -3.8513 -0 0 -0 55.388 36.911 -24.954 -13.051 -14.876 -39.466 1.5463 -10.575 -4.4344 -0 0 -0 -0.61733 -43.292 50.39 69.601 -37.612 54.739 29.494 -17.036 -44.479 -0.21737 -11.762 12.741 -0.21737 -11.762 12.741 10.257 18.111 -16.536 8.7996 -42.832 -5.5208 -9.9963 45.187 10.526 -10.326 -23.349 13.52 2.3643e-05 -0.0025562 -0.0070118 -0 0 -0 10.257 18.111 -16.536 2.0528 -41.724 11.011 -2.7992 36.616 0.97444 2.2174 -10.312 -8.2602 -0.21148 -4.5045 0.1024 -0 0 -0 
1.2555 93.321 0.082223 -0 0 -0 15.505 15.448 -16.451 -7.0684 3.819 -2.5391 -7.0684 3.819 -2.5391 -5.9474 3.1874 -2.1643 -0 0 -0 58.731 40.581 -25.587 -4.9001 -3.5341 -34.127 7.8497 -11.437 -12.957 -0 0 -0 4.4911 -45.563 48.038 82.036 -48.548 63.545 35.358 -18.009 -51.963 -0.065008 -13.384 12.678 -0.065007 -13.384 12.678 15.505 15.448 -16.451 1.0183 -49.775 -8.6708 -13.502 59.076 16.717 -13.56 -28.746 9.1246 -0.0069198 -0.0027588 0.00095251 -0 0 -0 15.505 15.448 -16.451 -5.0043 -37.156 5.9961 -2.8985 29.601 0.66513 4.3175 -7.3148 -5.848 -2.5898 -4.2839 0.3259 -0 0 -0 
-1.2679 95.253 -1.1124 -0 0 -0 20.46 9.0778 -13.404 -11.064 8.4203 -1.2054 -11.064 8.4203 -1.2054 -9.2938 7.0598 -1.1218 -0 0 -0 58.792 42.956 -20.9 -0.50786 2.8626 -33.504 13.438 -6.0144 -18.266 -0 0 -0 10.175 -49.471 45.593 87.338 -51.015 68.769 36.416 -16.721 -49.949 -0.37292 -16.507 10.905 -0.37291 -16.507 10.905 20.46 9.0778 -13.404 -9.2154 -55.777 -20.033 -35.581 71.334 37.15 -17.016 -32.552 8.6771 0.009023 -0.0036267 -0.007486 -0 0 -0 20.46 9.0778 -13.404 -12.079 -27.242 -0.994 -4.6123 20.445 0.84487 3.8 -2.2921 -2.8514 3.2847 -4.7268 -0.58623 -0 0 -0 
-3.4116 96.162 -1.8133 -0 0 -0 25.151 2.7215 -10.508 -15.093 13.374 0.50926 -15.093 13.374 0.50926 -12.629 11.25 0.18496 -0 0 -0 59.25 41.651 -16.187 0.93564 5.1156 -32.72 15.192 -1.6531 -19.776 -0 0 -0 12.661 -53.693 44.925 88.306 -52.88 72.187 29.631 -15.996 -46.814 1.3557 -20.134 8.7341 1.3557 -20.134 8.7341 25.151 2.7215 -10.508 -17.239 -60.582 -25.677 -78.509 76.939 78.574 -20.206 -33.897 5.4323 0.0050586 0.0042572 -0.012162 -0 0 -0 25.151 2.7215 -10.508 -17.25 -19.177 -1.9761 -5.4255 16.895 1.2158 6.2124 -0.94741 -4.5228 0.21467 -4.8375 0.26392 -0 0 -0 
-4.7696 95.627 -1.6919 -0 0 -0 28.517 -1.417 -8.3229 -16.259 17.189 2.021 -16.259 17.189 2.021 -13.543 14.488 1.3507 -0 0 -0 55.271 33.815 -10.416 0.28175 4.7181 -32.757 13.384 0.69272 -21.5 -0 0 -0 6.0194 -58.585 40.13 78.228 -62.022 66.093 27.024 -7.9949 -46.818 -0.42222 -23 5.6166 -0.42222 -23 5.6166 28.517 -1.417 -8.3229 -20.436 -64.481 -32.128 -104.81 69.442 101.72 -20.378 -33.768 4.2585 -0.0019206 -0.0094063 -0.012578 -0 0 -0 28.517 -1.417 -8.3229 -19.436 -18.395 -3.5239 -8.3824 25.114 2.1614 5.2985 -5.6809 -3.0288 0.38498 -5.1592 -0.078176 -0 0 -0 
-4.8468 94.191 -1.1944 -0 0 -0 26.537 -2.2478 -6.193 -13.544 17.715 3.3396 -13.544 17.715 3.3396 -11.241 14.941 2.4991 -0 0 -0 52.706 24.652 -10.521 -4.7754 -0.81475 -34.93 10.304 4.3227 -22.192 -0 0 -0 0.40484 -58.327 32.066 30.65 -58.771 27.932 31.33 -4.869 -38.648 -2.4547 -21.484 2.5114 -2.4547 -21.484 2.5114 26.537 -2.2478 -6.193 -20.407 -62.912 -33.045 -102.99 71.593 99.39 -20.606 -32.759 4.7182 -0.0022741 0.00074314 -0.0072655 -0 0 -0 26.537 -2.2478 -6.193 -17.761 -20.928 -4.4384 -9.3238 33.986 4.0304 2.2538 -10.769 -5.1819 1.5858 -4.5587 0.16657 -0 0 -0 
-4.1094 92.795 -0.71072 -0 0 -0 22.041 0.27251 -2.1936 -9.2456 15.469 4.1975 -9.2456 15.469 4.1975 -7.655 13.043 3.3392 -0 0 -0 53.962 14.94 -11.763 -17.457 -13.468 -44.923 3.6324 13.167 -16.876 -0 0 -0 -7.428 -55.313 25.946 4.9727 -34.099 11.998 25.14 -8.4505 -27.367 -3.2824 -17.672 -1.9557 -3.2824 -17.672 -1.9557 22.041 0.27251 -2.1936 -19.738 -56.091 -32.491 -59.001 73.65 57.424 -17.492 -28.16 6.3974 -0.0029472 0.0022747 -0.013004 -0 0 -0 22.041 0.27251 -2.1936 -14.934 -23.081 -5.3984 -8.0677 38.593 4.7059 0.54444 -13.665 -9.8942 -1.5722 -4.4548 -0.24419 -0 0 -0 
-3.383 91.886 -0.47507 -0 0 -0 18.027 6.0215 4.2493 -5.3888 11.652 4.6985 -5.3888 11.652 4.6985 -4.4507 9.8187 3.8627 -0 0 -0 53.586 1.2822 -13.607 -30.98 -21.697 -53.171 -4.2276 17.221 -8.0112 -0 0 -0 -20.807 -43.318 21.535 -4.4109 -18.049 7.0243 13.66 -8.5429 -19.29 -3.3394 -14.854 -7.9039 -3.3394 -14.854 -7.9039 18.027 6.0215 4.2493 -16.081 -51.218 -28.172 -25.681 62.883 24.214 -12.495 -21.063 4.2429 0.013226 -0.0020068 0.0043912 -0 0 -0 18.027 6.0215 4.2493 -12.414 -26.927 -8.0281 -6.585 38.743 2.526 -3.4242 -14.289 -14.505 -0.040954 -3.1795 0.032733 -0 0 -0 
-2.5524 91.244 -0.31084 -0 0 -0 12.169 10.946 12.471 -1.9704 7.9193 5.7896 -1.9704 7.9193 5.7896 -1.5993 6.6663 4.8394 -0 0 -0 49.779 -11.018 -14.217 -43.297 -27.963 -61.198 -14.275 16.96 5.3047 -0 0 -0 -34.255 -26.186 14.467 -8.5605 -9.4966 6.533 5.4826 -7.3558 -7.7508 -3.3603 -13.099 -14.958 -3.3603 -13.099 -14.958 12.169 10.946 12.471 -12.739 -46.974 -25.855 -14.614 49.04 13.019 -8.3951 -13.607 -0.26051 0.0086996 -0.00071414 0.004919 -0 0 -0 12.169 10.946 12.471 -10.638 -30.554 -8.7822 -3.3626 38.982 -3.8666 -3.4317 -14.362 -17.393 -0.56699 -2.8467 0.0082435 -0 0 -0 
-1.5375 90.611 0.069484 -0 0 -0 5.8874 12.927 19.98 1.135 4.6279 8.3064 1.135 4.6279 8.3064 0.99844 3.8771 6.9809 -0 0 -0 39.832 -24.41 -19.639 -52.688 -34.139 -63.772 -26.76 14.391 19.097 -0 0 -0 -44.504 -6.4913 11.735 -13.163 -0.4098 10.941 -0.31473 -6.7093 -2.0373 -4.2659 -12.092 -23.14 -4.2659 -12.092 -23.14 5.8874 12.927 19.98 -9.4655 -44.78 -23.375 -11.256 44 10.887 -5.9831 -11.921 -8.1648 -0.0075119 0.0012845 -0.0096111 -0 0 -0 5.8874 12.927 19.98 -8.1542 -32.221 -9.2343 -0.58654 39.487 -11.326 -2.5832 -15.459 -17.551 -0.30844 -2.6406 -0.13533 -0 0 -0 
-0.51151 89.949 0.7054 -0 0 -0 0.95139 14.456 26.352 2.2952 1.0671 11.102 2.2952 1.0671 11.102 1.9425 0.86677 9.3286 -0 0 -0 27.36 -34.647 -29.539 -56.983 -40.495 -62.615 -38.092 4.9878 35.139 -0 0 -0 -48.75 12.934 13.756 -16.204 8.7412 17.036 -2.9806 -8.1598 0.86266 -2.6832 -11.715 -29.716 -2.6832 -11.715 -29.716 0.95139 14.456 26.352 -7.9738 -44.646 -20.889 -9.4122 42.491 9.1146 -3.8162 -12.261 -14.918 0.0054429 0.0010353 -0.010777 -0 0 -0 0.95139 14.456 26.352 -9.062 -34.286 -10.258 4.7191 40.75 -20.196 -1.055 -17.013 -16.035 -0.15333 -2.6537 -0.036347 -0 0 -0 
0.69778 89.285 1.5382 -0 0 -0 -4.2039 17.693 31.985 2.0007 -3.4076 12.457 2.0007 -3.4076 12.457 1.6311 -2.8929 10.454 -0 0 -0 14.647 -38.425 -33.918 -59.02 -45.392 -63.766 -46.412 -7.9766 50.404 -0 0 -0 -48.387 31.954 19.317 -15.829 10.477 20.897 0.72506 -11.734 -4.5054 0.66408 -11.213 -32.734 0.66409 -11.213 -32.734 -4.2039 17.693 31.985 -7.7845 -47.376 -20.377 -9.5417 40.773 6.939 -1.0267 -12.299 -17.898 0.004728 -0.0074603 0.0020835 -0 0 -0 -4.2039 17.693 31.985 -9.8857 -38.054 -12.218 9.0261 41.079 -25.028 -1.0692 -18.041 -16.669 0.31174 -3.2788 -0.016766 -0 0 -0 
2.6889 88.608 2.3605 -0 0 -0 -7.5886 19.558 37.512 0.061278 -7.3429 9.6587 0.061277 -7.3429 9.6587 -0.032272 -6.1703 8.105 -0 0 -0 7.8394 -37.317 -33.159 -58.721 -48.737 -63.702 -42.747 -12.833 57.895 -0 0 -0 -47.327 42.417 20.566 -4.5351 -1.1864 24.243 11.647 -9.3442 -12.219 6.5508 -9.7257 -30.95 6.5508 -9.7257 -30.95 -7.5886 19.558 37.512 -9.303 -48.159 -22.832 -10.872 38.771 6.2894 1.3063 -12.348 -19.589 -0.002501 0.005833 -0.0021841 -0 0 -0 -7.5886 19.558 37.512 -13.35 -40.512 -13.889 12.16 43.531 -29.601 3.683 -18.621 -15.208 -1.3464 -5.2311 -1.4645 -0 0 -0 
5.4358 87.946 3.0457 -0 0 -0 -9.9638 20.155 38.437 -2.1135 -9.7183 4.54 -2.1135 -9.7183 4.54 -1.8247 -8.1527 3.8316 -0 0 -0 5.7437 -34.584 -30.187 -55.991 -50.872 -68.467 -30.545 -11.994 57.784 -0 0 -0 -47.56 41.196 20.613 16.638 -14.278 24.526 26.528 -9.9073 -14.463 13.494 -6.4649 -26.359 13.494 -6.4649 -26.359 -9.9638 20.155 38.437 -9.5689 -47.839 -22.797 -10.639 37.951 4.7742 3.6311 -13.016 -18.634 0.0020333 0.0026681 -0.0071748 -0 0 -0 -9.9638 20.155 38.437 -14.518 -42.431 -13.331 12.725 46.957 -29.182 11.186 -15.463 -13.211 -1.4523 -11.164 -0.50046 -0 0 -0 
8.5364 87.307 3.579 -0 0 -0 -8.0349 20.144 31.744 -2.7658 -9.4594 0.93646 -2.7658 -9.4594 0.93646 -2.3301 -7.9431 0.81637 -0 0 -0 5.5603 -33.079 -26.633 -49.161 -49.053 -69.54 -16.703 -10.818 45.023 -0 0 -0 -45.485 36.897 15.681 39.576 -27.336 30.197 40.249 -11.629 -25.284 16.029 -3.6986 -20.598 16.029 -3.6986 -20.598 -8.0349 20.144 31.744 -8.7441 -46.856 -20.517 -12.653 40.76 6.2636 6.2294 -16.05 -13.739 -0.0069771 -0.0085083 0.0021849 -0 0 -0 -8.0349 20.144 31.744 -16.815 -44.425 -9.5469 16.403 53.211 -30.807 20.399 -10.677 -5.2433 -0.91008 -13.637 -0.15031 -0 0 -0 
11.692 86.621 4.1066 -0 0 -0 -7.1134 18.898 20.892 -1.036 -8.097 -1.5341 -1.036 -8.097 -1.5341 -0.85458 -6.8034 -1.2772 -0 0 -0 7.1482 -31.189 -21.445 -34.635 -45.241 -64.926 -7.0771 -13.617 28.361 -0 0 -0 -41.329 28.969 9.4003 62.738 -36.47 44.791 45.606 -18.656 -38.212 15.506 -1.7164 -13.415 15.506 -1.7164 -13.415 -7.1134 18.898 20.892 -6.3887 -45.883 -15.007 -11.432 45.144 6.3085 8.6519 -19.513 -6.9603 -0.0021197 -0.0046146 -0.010544 -0 0 -0 -7.1134 18.898 20.892 -14.292 -48.994 -3.8945 14.756 60.479 -26.126 28.533 0.86138 2.3033 1.2302 -13.724 0.32646 -0 0 -0 
14.604 85.868 4.7273 -0 0 -0 -8.4302 17.777 9.7626 2.8468 -5.5036 -3.6198 2.8468 -5.5036 -3.6198 2.4135 -4.6112 -3.0575 -0 0 -0 11.119 -28.797 -14.308 -24.942 -39.888 -58.73 1.1646 -15.71 14.988 -0 0 -0 -40.194 13.103 5.5172 83.937 -44.43 60.563 51.358 -25.373 -48.54 11.37 -0.83633 -4.7353 11.37 -0.83633 -4.7353 -8.4302 17.777 9.7626 -1.6887 -46.704 -8.6516 -8.7974 50.161 7.2969 9.0929 -22.417 -1.8732 0.010902 0.0015274 -0.0099223 -0 0 -0 -8.4302 17.777 9.7626 -8.0669 -55.418 5.0652 11.358 66.455 -19.999 37.136 12.978 3.9949 -0.4207 3.0855 3.8947 -0 0 -0 
